PathFileType	4	(X/Y/Z)	3_coords_data.trc
DataRate	CameraRate	NumFrames	NumMarkers	Units	OrigDataRate	OrigDataStartFrame	OrigNumFrames
30.0	30.0	6	21	m	30.0	41	81
Frame#	Time	THUMB_TIP	THUMB_IP	THUMB_MCP	THUMB_CMC	INDEX_TIP	INDEX_DIP	INDEX_PIP	INDEX_MCP	MIDDLE_TIP	MIDDLE_DIP	MIDDLE_PIP	MIDDLE_MCP	RING_TIP	RING_DIP	RING_PIP	RING_MCP	PINKY_TIP	PINKY_DIP	PINKY_PIP	PINKY_MCP	WRIST
X1	Y1	Z1	X2	Y2	Z2	X3	Y3	Z3	X4	Y4	Z4	X5	Y5	Z5	X6	Y6	Z6	X7	Y7	Z7	X8	Y8	Z8	X9	Y9	Z9	X10	Y10	Z10	X11	Y11	Z11	X12	Y12	Z12	X13	Y13	Z13	X14	Y14	Z14	X15	Y15	Z15	X16	Y16	Z16	X17	Y17	Z17	X18	Y18	Z18	X19	Y19	Z19	X20	Y20	Z20	X21	Y21	Z21
40	1.3333333333333333	-0.1683350067138672	-0.11468299865722656	0.92343701171875	-0.16698800659179688	-0.09230500030517579	0.9423889770507813	-0.1682359924316406	-0.07462220001220703	0.96789501953125	-0.16653399658203125	-0.045227001190185544	0.9928070068359375	-0.1561909942626953	-0.04813140106201172	0.9707109985351563	-0.14006300354003906	-0.043978599548339846	0.9577239990234375	-0.13719700622558595	-0.04411890029907226	0.9334329833984375	-0.17671099853515626	-0.051644500732421876	0.9362919921875	-0.15288999938964845	-0.031194400787353516	0.9709609985351563	-0.14147799682617188	-0.026146699905395508	0.964073974609375	-0.1390559997558594	-0.02275510025024414	0.9369119873046875	-0.18063099670410157	-0.028911100387573243	0.9353779907226563	-0.1630780029296875	-0.01901169967651367	0.9786270141601563	-0.14816600036621094	-0.010312100410461426	0.9693870239257812	-0.14547200012207032	-0.003020669937133789	0.94472802734375	-0.18531399536132812	-0.008900050163269044	0.942968017578125	-0.16744700622558595	-0.005732649803161621	0.978822998046875	-0.15409800720214845	0.003537810087203979	0.9710189819335937	-0.15534500122070313	0.012082599639892578	0.9539039916992188	-0.1874600067138672	0.0087337703704834	0.9526170043945312	-0.18594500732421876	-0.023357500076293947	1.0166500244140626
41	1.3666666666666667	-0.16823399353027343	-0.1146510009765625	0.9232579956054687	-0.16709800720214843	-0.09210459899902344	0.9423200073242187	-0.16827499389648437	-0.07456089782714843	0.9677310180664063	-0.16742599487304688	-0.04564260101318359	0.9929959716796875	-0.15386900329589845	-0.04801520156860352	0.9695819702148437	-0.13970700073242187	-0.0440718994140625	0.9574359741210937	-0.13717300415039063	-0.04408509826660156	0.933114990234375	-0.1767480010986328	-0.05165290069580078	0.93622998046875	-0.1550429992675781	-0.03239059829711914	0.9739180297851563	-0.14170799255371094	-0.02619969940185547	0.9638800048828124	-0.13902699279785155	-0.022716999053955078	0.93664501953125	-0.18074899291992189	-0.028932199478149415	0.93543701171875	-0.1631490020751953	-0.018962699890136717	0.9786799926757812	-0.14840800476074217	-0.01027400016784668	0.9690479736328125	-0.14552999877929687	-0.003049910068511963	0.9444539794921875	-0.18532000732421874	-0.008821459770202636	0.9428690185546875	-0.16723300170898436	-0.005795969963073731	0.9787360229492188	-0.15356399536132812	0.003698050022125244	0.9707639770507812	-0.15611500549316407	0.01211340045928955	0.954010986328125	-0.18698800659179687	0.008776530265808106	0.9523729858398438	-0.18609599304199217	-0.023451900482177733	1.0168300170898437
42	1.4	-0.16820599365234376	-0.11447599792480469	0.922906982421875	-0.1669219970703125	-0.09226519775390625	0.9420800170898438	-0.16823699951171875	-0.07445040130615234	0.9676929931640625	-0.16727499389648437	-0.04557989883422851	0.992969970703125	-0.15585499572753905	-0.04793820190429687	0.970135986328125	-0.13955299377441407	-0.044106098175048826	0.95689599609375	-0.13730099487304687	-0.04427880096435547	0.932843017578125	-0.17680599975585937	-0.051698001861572265	0.936208984375	-0.15529800415039063	-0.032387100219726565	0.9744929809570313	-0.14123699951171875	-0.02624760055541992	0.9636380004882813	-0.13899600219726563	-0.02281209945678711	0.93639501953125	-0.1806269989013672	-0.028981899261474608	0.9352429809570313	-0.16297900390625	-0.019023099899291993	0.9783699951171875	-0.1481439971923828	-0.01033780002593994	0.9689000244140625	-0.14534100341796874	-0.0030652399063110353	0.9443099975585938	-0.18526199340820312	-0.008905449867248534	0.9427750244140625	-0.16713900756835937	-0.005853209972381592	0.978489990234375	-0.15355099487304688	0.003757879972457885	0.9705330200195312	-0.15538099670410158	0.012018899917602539	0.9537410278320313	-0.18702999877929688	0.008714920043945312	0.9522579956054688	-0.18579899597167968	-0.023386299133300783	1.0164500122070312
43	1.4333333333333333	-0.1679859924316406	-0.11412699890136718	0.92277099609375	-0.16691799926757814	-0.0920167999267578	0.9418170166015625	-0.16826100158691407	-0.07431700134277344	0.96764599609375	-0.16770700073242187	-0.0455463981628418	0.992885986328125	-0.15267300415039062	-0.04740010070800781	0.9699169921875	-0.13896099853515625	-0.04398569869995117	0.9565809936523437	-0.1375919952392578	-0.04426079940795898	0.93222998046875	-0.17716999816894533	-0.051794700622558594	0.9363770141601563	-0.15383399963378908	-0.03238819885253906	0.97427099609375	-0.14083799743652345	-0.02617959976196289	0.9632249755859374	-0.1391750030517578	-0.022703100204467773	0.9357080078125	-0.1810330047607422	-0.0289468994140625	0.935333984375	-0.16269900512695312	-0.01918670082092285	0.978135009765625	-0.1479199981689453	-0.010301300048828125	0.968405029296875	-0.1455070037841797	-0.003050940036773681	0.9437210083007812	-0.18539199829101563	-0.008872269630432129	0.9427429809570312	-0.16626499938964845	-0.005791309833526611	0.9785289916992187	-0.15340899658203125	0.003745919942855835	0.9703519897460937	-0.15543699645996092	0.012067299842834472	0.953593994140625	-0.18711799621582031	0.008762189865112305	0.9522639770507813	-0.18563299560546875	-0.023357799530029297	1.0163800048828124
44	1.4666666666666666	-0.16742799377441406	-0.1131760025024414	0.9219619750976562	-0.16684599304199219	-0.090981201171875	0.941447021484375	-0.16820399475097655	-0.074072998046875	0.9674439697265625	-0.16769500732421874	-0.04529690170288086	0.9926580200195313	-0.15034100341796874	-0.04600149917602539	0.970135986328125	-0.13799899291992188	-0.04340489959716797	0.9556649780273437	-0.1379949951171875	-0.04421390151977539	0.9310980224609375	-0.17783799743652343	-0.051718101501464844	0.9365059814453125	-0.1530749969482422	-0.03189240074157715	0.9734940185546875	-0.14033599853515624	-0.02581209945678711	0.9620889892578125	-0.13947799682617187	-0.022645000457763673	0.9343590087890625	-0.18148399353027345	-0.028885700225830077	0.935364013671875	-0.162197998046875	-0.019091899871826173	0.9778040161132813	-0.1483280029296875	-0.010142399787902831	0.9672520141601563	-0.14572900390625	-0.002839930057525634	0.9426309814453125	-0.18585400390625	-0.008747340202331543	0.942614013671875	-0.16622900390625	-0.0059276800155639645	0.9780750122070313	-0.1530959930419922	0.003747060060501098	0.969760986328125	-0.15536099243164062	0.012214699745178222	0.9527219848632813	-0.18697599792480468	0.009019020080566407	0.9520689697265625	-0.18557699584960938	-0.02299220085144043	1.0164400024414062
45	1.5	-0.165677001953125	-0.11106900024414063	0.9200989990234375	-0.16608999633789062	-0.08978189849853516	0.940489990234375	-0.16813900756835937	-0.07344850158691406	0.9671170043945313	-0.16766400146484375	-0.045124500274658204	0.9926279907226563	-0.14838699340820313	-0.04538479995727539	0.969489990234375	-0.1370919952392578	-0.04327069854736328	0.9531129760742187	-0.13914500427246093	-0.044028701782226565	0.9290479736328126	-0.17810000610351562	-0.051075801849365235	0.9360709838867187	-0.15099200439453125	-0.03182640075683594	0.9733939819335937	-0.13828500366210938	-0.025458700180053712	0.96031298828125	-0.13996800231933593	-0.02250130081176758	0.932531005859375	-0.18232200622558595	-0.028551000595092774	0.9353319702148437	-0.16118400573730468	-0.018915399551391602	0.9775599975585938	-0.14711700439453124	-0.01015310001373291	0.9666259765625	-0.14599000549316407	-0.002651469945907592	0.9413489990234375	-0.18613800048828125	-0.00842770004272461	0.9428200073242188	-0.16436199951171876	-0.0059969801902770995	0.9781400146484375	-0.15233299255371094	0.0039012100696563723	0.9686649780273437	-0.1555030059814453	0.012270299911499024	0.9519660034179688	-0.18759199523925782	0.009228509902954101	0.95243701171875	-0.18590400695800782	-0.02267049980163574	1.0165700073242188
